# xmcd
#
# Track frame offsets:
#	150
#	20931
#	45794
#	61796
#	71712
#	89996
#	111481
#	126372
#	143983
#	180643
#	202716
#	213594
#	227789
#	246251
#	281370
#
# Disc length: 3899 seconds
#
# Revision: 2
# Processed by: cddbd v1.5.2PL0 Copyright (c) Steve Scherf et al.
# Submitted via: EZCDAudioConverter 2.1.7.1
#
DISCID=e50f390f
DTITLE=Fotheringay - Nothing More 1/3
DYEAR=1970
DGENRE=
TTITLE0=Nothing More
TTITLE1=The Sea
TTITLE2=The Ballad Of Ned Kelly
TTITLE3=Winter Winds
TTITLE4=Peace In The End
TTITLE5=The Way I Feel
TTITLE6=The Pond And The Stream
TTITLE7=Too Much Of Nothing
TTITLE8=Banks Of The Nile
TTITLE9=The Sea [Demo]
TTITLE10=Winter Winds [Demo]
TTITLE11=The Pond And The Stream [Demo]
TTITLE12=The Way I Feel [Original Version]
TTITLE13=Banks Of The Nile [Alternate Take]
TTITLE14=Winter Winds [Alternate Take]
EXTD=
EXTT0=
EXTT1=
EXTT2=
EXTT3=
EXTT4=
EXTT5=
EXTT6=
EXTT7=
EXTT8=
EXTT9=
EXTT10=
EXTT11=
EXTT12=
EXTT13=
EXTT14=
PLAYORDER=
